<?xml version="1.0" encoding="UTF-8"?> 
<svg xmlns="http://www.w3.org/2000/svg" xmlns:xlink="http://www.w3.org/1999/xlink" width="326" height="326" viewBox="0 0 326 326" version="1.1">
<g id="surface1">
<path style=" stroke:none;fill-rule:evenodd;fill:rgb(90.980393%,30.588236%,30.588236%);fill-opacity:1;" d="M 164.960938 64.058594 C 159.34375 66.703125 142.375 74.667969 127.25 81.753906 C 104.449219 92.4375 98.996094 95.191406 95.328125 97.867188 C 92.898438 99.640625 78.386719 110.445312 63.078125 121.878906 C 47.773438 133.308594 32.71875 144.550781 29.625 146.859375 C 26.53125 149.167969 24 151.152344 24 151.265625 C 24 151.382812 24.617188 151.234375 25.375 150.941406 C 26.132812 150.648438 33.5 148.042969 41.75 145.152344 C 50 142.261719 58.550781 139.261719 60.75 138.480469 C 62.949219 137.703125 68.574219 135.722656 73.25 134.082031 C 77.925781 132.441406 82.390625 130.847656 83.175781 130.542969 C 83.960938 130.234375 90.375 125.78125 97.425781 120.640625 C 104.480469 115.503906 123.074219 101.945312 138.75 90.511719 C 154.425781 79.078125 167.960938 69.222656 168.828125 68.613281 L 170.410156 67.496094 L 183.453125 81.851562 C 190.628906 89.75 196.5 96.363281 196.5 96.550781 C 196.5 96.738281 186.035156 105.378906 173.246094 115.75 C 160.457031 126.121094 149.878906 134.789062 149.742188 135.015625 C 149.507812 135.394531 165.21875 131.460938 167.683594 130.523438 C 168.292969 130.292969 175.078125 125.320312 182.769531 119.46875 C 190.457031 113.621094 201.363281 105.347656 207 101.089844 C 212.636719 96.828125 217.714844 92.929688 218.28125 92.421875 C 218.851562 91.914062 219.636719 91.507812 220.03125 91.515625 C 220.425781 91.523438 231.304688 102.070312 244.203125 114.949219 L 267.660156 138.371094 L 265.953125 138.902344 C 265.015625 139.195312 261.886719 140.175781 259 141.082031 C 254.957031 142.347656 254.09375 142.761719 255.25 142.882812 C 258.101562 143.179688 298.75 145.886719 298.863281 145.789062 C 298.992188 145.675781 293.644531 139.675781 275.28125 119.320312 L 262.8125 105.5 L 239.757812 105.5 L 229.992188 95.742188 L 220.222656 85.980469 L 213.007812 88.550781 L 205.796875 91.117188 L 201.023438 86.179688 C 198.398438 83.464844 191.507812 76.296875 185.710938 70.246094 L 175.167969 59.25 L 164.960938 64.058594 M 202.332031 117.832031 C 202.148438 118.015625 202 121.960938 202 126.597656 L 202 135.027344 L 209.082031 134.886719 L 216.167969 134.75 L 216.089844 126.5 C 216.042969 121.960938 216.007812 118.082031 216.003906 117.875 C 216 117.410156 202.796875 117.371094 202.332031 117.832031 M 220.5 126.234375 L 220.5 135 L 234.523438 135 L 234.25 117.75 L 227.375 117.609375 L 220.5 117.472656 L 220.5 126.234375 M 279.386719 154.09375 C 272.5625 154.96875 268.179688 159.6875 266.972656 167.464844 C 265.597656 176.324219 269.003906 184.238281 275.457031 187.171875 C 278.851562 188.714844 285.816406 188.679688 289.25 187.101562 C 294.953125 184.476562 297.507812 180.152344 297.886719 172.46875 C 298.535156 159.394531 291.625 152.53125 279.386719 154.09375 M 27.5 171 L 27.5 188 L 34 188 L 34 172.5 L 49 172.5 L 49 188 L 56.011719 188 L 55.882812 171.125 L 55.75 154.25 L 49.25 154.25 L 48.96875 167 L 34 167 L 34 154 L 27.5 154 L 27.5 171 M 64.5 170.992188 L 64.5 188 L 87 188 L 87 182.5 L 71 182.5 L 71 173 L 85.050781 173 L 84.902344 170.375 L 84.75 167.75 L 77.875 167.609375 L 71 167.472656 L 71 160.027344 L 78.875 159.886719 L 86.75 159.75 L 86.75 154.25 L 75.625 154.117188 L 64.5 153.980469 L 64.5 170.992188 M 93.5 170.9375 L 93.5 188 L 100 188 L 100 174 L 102.933594 174 C 107.300781 174 107.992188 174.75 110.289062 181.988281 L 112.195312 188 L 115.597656 188 C 117.46875 188 119 187.933594 119 187.851562 C 119 187.394531 115.027344 175.972656 114.515625 174.957031 C 114.179688 174.292969 113.308594 173.222656 112.578125 172.578125 C 111.734375 171.835938 111.46875 171.320312 111.851562 171.167969 C 118.871094 168.40625 119.445312 158.828125 112.789062 155.53125 C 110.542969 154.417969 109.578125 154.289062 101.914062 154.089844 L 93.5 153.871094 L 93.5 170.9375 M 125 171 L 125 188 L 131.5 188 L 131.5 176.5 C 131.5 170.175781 131.667969 165.007812 131.875 165.023438 C 132.082031 165.035156 135.398438 170.207031 139.25 176.515625 L 146.25 187.988281 L 149.625 187.992188 L 153 188 L 153 153.953125 L 146.75 154.25 L 146.5 165.242188 L 146.25 176.230469 L 139.320312 165.117188 L 132.390625 154 L 125 154 L 125 171 M 170.261719 154.480469 C 169.914062 155.039062 169.871094 155.167969 163.074219 174.875 L 158.546875 188 L 165.449219 188 L 167.785156 180.25 L 174.285156 180.109375 L 180.789062 179.972656 L 182.046875 183.859375 L 183.308594 187.75 L 186.871094 187.898438 L 190.4375 188.042969 L 186.667969 177.148438 C 184.59375 171.152344 181.964844 163.550781 180.824219 160.25 L 178.75 154.25 L 174.667969 154.105469 C 172.21875 154.019531 170.453125 154.167969 170.261719 154.480469 M 195 171 L 195 188 L 201.5 188 L 201.5 176.5 C 201.5 170.175781 201.667969 165.007812 201.875 165.023438 C 202.082031 165.035156 205.398438 170.207031 209.25 176.515625 L 216.25 187.988281 L 219.625 187.992188 L 223 188 L 223 153.953125 L 216.75 154.25 L 216.5 165.242188 L 216.25 176.230469 L 209.320312 165.117188 L 202.390625 154 L 195 154 L 195 171 M 232.5 170.976562 L 232.5 188.097656 L 241.125 187.878906 C 251.382812 187.617188 253.515625 187.03125 257.035156 183.511719 C 260.136719 180.414062 261.226562 177.207031 261.207031 171.25 C 261.191406 166.0625 260.566406 163.492188 258.617188 160.589844 C 255.386719 155.78125 251.941406 154.546875 240.625 154.140625 L 232.5 153.851562 L 232.5 170.976562 M 100 164 L 100 168.5 L 104.273438 168.5 C 108.140625 168.5 108.660156 168.382812 109.773438 167.273438 C 111.796875 165.25 111.179688 161.199219 108.671875 160.054688 C 108 159.75 105.777344 159.5 103.726562 159.5 L 100 159.5 L 100 164 M 278.726562 160.171875 C 274.996094 161.871094 273.121094 166.679688 273.660156 173.144531 C 274.191406 179.472656 277.0625 182.5 282.542969 182.5 C 286.066406 182.5 288.300781 181.136719 289.875 178.015625 C 290.808594 176.164062 290.996094 174.984375 290.988281 171.019531 C 290.976562 165.484375 290.054688 162.820312 287.535156 161.027344 C 285.550781 159.613281 280.933594 159.164062 278.726562 160.171875 M 239 171.3125 L 239 182.621094 L 243.382812 182.414062 C 251.078125 182.046875 253.933594 179.425781 254.382812 172.316406 C 254.664062 167.917969 253.921875 165.015625 251.9375 162.753906 C 250.089844 160.648438 247.96875 160.007812 242.875 160.003906 L 239 160 L 239 171.3125 M 173.753906 162.125 C 172.128906 166.847656 169.972656 174.140625 170.148438 174.316406 C 170.273438 174.4375 172.285156 174.476562 174.621094 174.394531 L 178.867188 174.25 L 176.847656 167.875 C 174.953125 161.894531 174.269531 160.625 173.753906 162.125 M 27 215 L 27 225 L 29.5 225 L 29.5 214.964844 L 34.625 215.109375 L 39.75 215.25 L 39.894531 220.125 C 40.023438 224.589844 40.117188 225 41.019531 225 C 41.960938 225 42 224.605469 42 215 C 42 205.332031 41.964844 205 41 205 C 40.082031 205 40 205.332031 40 209 L 40 213 L 29.5 213 L 29.5 209 C 29.5 205.066406 29.480469 205 28.25 205 L 27 205 L 27 215 M 52.109375 205.804688 C 48.292969 207.75 46.632812 213.109375 48.074219 218.835938 C 49.207031 223.335938 53.417969 225.816406 58.390625 224.914062 C 62.941406 224.085938 65.222656 220.777344 65.222656 215 C 65.222656 210.832031 64.09375 208.109375 61.59375 206.257812 C 59.757812 204.902344 54.390625 204.644531 52.109375 205.804688 M 70 214.96875 C 70 224.667969 70.03125 225 71 225 C 71.957031 225 72 224.667969 72 217 C 72 212.601562 72.167969 209 72.375 209.003906 C 72.582031 209.007812 74.015625 212.550781 75.558594 216.878906 C 78.070312 223.910156 78.5 224.765625 79.582031 224.898438 C 80.722656 225.039062 80.964844 224.5625 83.773438 216.707031 L 86.75 208.367188 L 87.023438 225 L 89.5 225 L 89.5 204.941406 L 87.671875 205.09375 L 85.839844 205.25 L 82.847656 213.636719 C 81.199219 218.246094 79.761719 221.925781 79.648438 221.8125 C 79.53125 221.699219 78.128906 217.925781 76.523438 213.429688 L 73.605469 205.25 L 71.804688 205.09375 L 70 204.941406 L 70 214.96875 M 95.5 215 L 95.5 225 L 101.75 225 C 107.667969 225 108 224.945312 108 224 C 108 223.066406 107.667969 223 103 223 L 98 223 L 98 215.5 L 102.25 215.5 C 106.167969 215.5 106.5 215.421875 106.5 214.5 C 106.5 213.578125 106.167969 213.5 102.25 213.5 L 98 213.5 L 98 207 L 103 207 C 107.667969 207 108 206.933594 108 206 C 108 205.054688 107.667969 205 101.75 205 L 95.5 205 L 95.5 215 M 119 215 L 119 225 L 121.5 225 L 121.5 205 L 119 205 L 119 215 M 127.5 215 L 127.5 225 L 129.976562 225 L 130.25 208.75 L 135.25 216.867188 C 139.742188 224.160156 140.390625 224.984375 141.625 224.992188 L 143 225 L 143 205 L 140.5 205 L 140.5 212.53125 C 140.5 216.671875 140.3125 219.941406 140.082031 219.800781 C 139.851562 219.660156 137.578125 216.269531 135.03125 212.273438 C 130.808594 205.648438 130.265625 205 128.949219 205 L 127.5 205 L 127.5 215 M 150.386719 205.78125 C 147.972656 207.089844 147.320312 209.730469 148.730469 212.464844 C 149.46875 213.886719 151.351562 214.882812 155.359375 215.960938 C 158.066406 216.691406 159 217.667969 159 219.773438 C 159 222.167969 157.320312 223.207031 153.96875 222.882812 C 152.132812 222.707031 151.074219 222.28125 150.054688 221.300781 C 148.847656 220.144531 148.570312 220.0625 148.042969 220.699219 C 146.742188 222.265625 149.785156 224.785156 153.25 225.007812 C 157.117188 225.257812 158.097656 225.003906 159.800781 223.300781 C 161.171875 221.929688 161.5 221.210938 161.5 219.589844 C 161.5 216.617188 159.796875 214.851562 155.890625 213.773438 C 151.636719 212.601562 150.5 211.8125 150.5 210.023438 C 150.5 209.226562 150.851562 208.21875 151.285156 207.785156 C 152.328125 206.742188 156.417969 206.75 157.910156 207.792969 C 159.140625 208.652344 160.5 208.433594 160.5 207.375 C 160.5 205.296875 153.351562 204.171875 150.386719 205.78125 M 166 215 L 166 225 L 167.25 225 C 168.480469 225 168.5 224.933594 168.5 221 L 168.5 217 L 172.300781 217 C 175.953125 217 176.164062 216.933594 177.800781 215.300781 C 179.269531 213.832031 179.5 213.269531 179.5 211.160156 C 179.5 206.578125 177.136719 205 170.265625 205 L 166 205 L 166 215 M 184.5 215 L 184.5 225 L 190.75 225 C 196.667969 225 197 224.945312 197 224 C 197 223.066406 196.667969 223 192 223 L 187 223 L 187 215.5 L 191.25 215.5 C 195.167969 215.5 195.5 215.421875 195.5 214.5 C 195.5 213.578125 195.167969 213.5 191.25 213.5 L 187 213.5 L 187 207 L 192 207 C 196.667969 207 197 206.933594 197 206 C 197 205.054688 196.667969 205 190.75 205 L 184.5 205 L 184.5 215 M 204.707031 205.945312 C 200.109375 208.75 198.617188 215.765625 201.523438 220.933594 C 204.46875 226.175781 213.167969 226.496094 215.773438 221.457031 C 216.449219 220.144531 216.476562 219.792969 215.921875 219.441406 C 214.910156 218.800781 214.597656 218.902344 214.253906 219.988281 C 213.675781 221.8125 211.554688 223 208.882812 223 C 206.738281 223 206.175781 222.773438 204.746094 221.34375 C 203.542969 220.140625 202.992188 219.046875 202.738281 217.34375 C 201.824219 211.238281 204.28125 207 208.734375 207 C 211.277344 207 212.835938 207.605469 214 209.046875 C 214.996094 210.277344 216.242188 209.554688 215.757812 208.027344 C 214.851562 205.171875 208.070312 203.894531 204.707031 205.945312 M 218.25 205.5 C 217.613281 206.527344 218.644531 207 221.53125 207 L 224.5 207 L 224.5 225 L 227 225 L 227 207 L 230 207 C 232.667969 207 233 206.890625 233 206 C 233 205.046875 232.667969 205 225.78125 205 C 221.503906 205 218.433594 205.203125 218.25 205.5 M 237 215 L 237 225 L 239.5 225 L 239.5 205 L 237 205 L 237 215 M 249.109375 205.804688 C 245.609375 207.585938 243.808594 212.679688 244.875 217.765625 C 245.988281 223.078125 248.832031 225.253906 254.203125 224.914062 C 257.777344 224.683594 259.382812 223.714844 261.078125 220.75 C 261.992188 219.152344 262.222656 217.992188 262.222656 215 C 262.222656 210.832031 261.09375 208.109375 258.59375 206.257812 C 256.757812 204.902344 251.390625 204.644531 249.109375 205.804688 M 267 215 L 267 225 L 269.476562 225 L 269.75 208.75 L 274.75 216.867188 C 279.242188 224.160156 279.890625 224.984375 281.125 224.992188 L 282.5 225 L 282.5 205 L 280 205 L 280 212.53125 C 280 216.878906 279.808594 219.941406 279.546875 219.78125 C 279.300781 219.625 277.027344 216.238281 274.5 212.25 C 270.308594 205.636719 269.777344 205 268.453125 205 L 267 205 L 267 215 M 289.886719 205.78125 C 287.472656 207.089844 286.820312 209.730469 288.230469 212.464844 C 288.96875 213.886719 290.851562 214.882812 294.859375 215.960938 C 297.566406 216.691406 298.5 217.667969 298.5 219.773438 C 298.5 222.167969 296.820312 223.207031 293.46875 222.882812 C 291.632812 222.707031 290.574219 222.28125 289.554688 221.300781 C 288.347656 220.144531 288.070312 220.0625 287.542969 220.699219 C 286.242188 222.265625 289.285156 224.785156 292.75 225.007812 C 296.617188 225.257812 297.597656 225.003906 299.300781 223.300781 C 300.691406 221.910156 301 221.21875 301 219.511719 C 301 216.703125 299.144531 214.851562 295.199219 213.734375 C 291.109375 212.574219 290 211.78125 290 210.023438 C 290 209.226562 290.351562 208.21875 290.785156 207.785156 C 291.828125 206.742188 295.917969 206.75 297.410156 207.792969 C 298.683594 208.683594 300 208.421875 300 207.277344 C 300 205.257812 292.8125 204.191406 289.886719 205.78125 M 52.246094 208.65625 C 49.222656 211.675781 49.222656 218.324219 52.246094 221.34375 C 53.695312 222.792969 54.222656 223 56.5 223 C 58.777344 223 59.304688 222.792969 60.753906 221.34375 C 61.957031 220.140625 62.507812 219.046875 62.761719 217.34375 C 63.335938 213.515625 62.652344 210.550781 60.753906 208.65625 C 59.304688 207.207031 58.777344 207 56.5 207 C 54.222656 207 53.695312 207.207031 52.246094 208.65625 M 168.5 211 L 168.5 215 L 171.695312 215 C 175.152344 215 176.863281 214.117188 177.027344 212.25 C 177.382812 208.195312 176.179688 207 171.75 207 L 168.5 207 L 168.5 211 M 249.246094 208.65625 C 247.347656 210.550781 246.664062 213.515625 247.238281 217.34375 C 247.492188 219.046875 248.042969 220.140625 249.246094 221.34375 C 250.695312 222.792969 251.222656 223 253.5 223 C 255.777344 223 256.304688 222.792969 257.753906 221.34375 C 259.652344 219.449219 260.335938 216.484375 259.761719 212.65625 C 259.507812 210.953125 258.957031 209.859375 257.753906 208.65625 C 256.304688 207.207031 255.777344 207 253.5 207 C 251.222656 207 250.695312 207.207031 249.246094 208.65625 "/>
</g>
</svg>
